<svg width="176" height="87" viewBox="0 0 176 87" fill="none" xmlns="http://www.w3.org/2000/svg">
<path d="M18.3097 18.2756C18.196 17.1297 17.7083 16.2396 16.8466 15.6051C15.9848 14.9706 14.8153 14.6534 13.3381 14.6534C12.3343 14.6534 11.4867 14.7955 10.7955 15.0795C10.1042 15.3542 9.57386 15.7377 9.20455 16.2301C8.8447 16.7225 8.66477 17.2812 8.66477 17.9062C8.64583 18.4271 8.75473 18.8816 8.99148 19.2699C9.23769 19.6581 9.57386 19.9943 10 20.2784C10.4261 20.553 10.9186 20.7945 11.4773 21.0028C12.036 21.2017 12.6326 21.3722 13.267 21.5142L15.8807 22.1392C17.1496 22.4233 18.3144 22.8021 19.375 23.2756C20.4356 23.7491 21.3542 24.3314 22.1307 25.0227C22.9072 25.714 23.5085 26.5284 23.9347 27.4659C24.3703 28.4034 24.5928 29.4782 24.6023 30.6903C24.5928 32.4706 24.1383 34.0142 23.2386 35.321C22.3485 36.6184 21.0606 37.6269 19.375 38.3466C17.6989 39.0568 15.6771 39.4119 13.3097 39.4119C10.9612 39.4119 8.91572 39.0521 7.1733 38.3324C5.44034 37.6127 4.08617 36.5473 3.1108 35.1364C2.14489 33.7159 1.63826 31.9593 1.59091 29.8665H7.54261C7.6089 30.8419 7.88826 31.6562 8.38068 32.3097C8.88258 32.9536 9.55019 33.4413 10.3835 33.7727C11.2263 34.0947 12.178 34.2557 13.2386 34.2557C14.2803 34.2557 15.1847 34.1042 15.9517 33.8011C16.7282 33.4981 17.3295 33.0767 17.7557 32.5369C18.1818 31.9972 18.3949 31.3769 18.3949 30.6761C18.3949 30.0227 18.2008 29.4735 17.8125 29.0284C17.4337 28.5833 16.875 28.2045 16.1364 27.892C15.4072 27.5795 14.5123 27.2955 13.4517 27.0398L10.2841 26.2443C7.83144 25.6477 5.89489 24.715 4.47443 23.446C3.05398 22.1771 2.34848 20.4678 2.35795 18.3182C2.34848 16.5568 2.81723 15.018 3.7642 13.7017C4.72064 12.3854 6.0322 11.358 7.69886 10.6193C9.36553 9.88068 11.2595 9.51136 13.3807 9.51136C15.5398 9.51136 17.4242 9.88068 19.0341 10.6193C20.6534 11.358 21.9129 12.3854 22.8125 13.7017C23.7121 15.018 24.1761 16.5426 24.2045 18.2756H18.3097ZM54.3081 9.90909H60.4587V28.8011C60.4587 30.9223 59.952 32.7784 58.9388 34.3693C57.935 35.9602 56.5287 37.2008 54.72 38.0909C52.9113 38.9716 50.8043 39.4119 48.399 39.4119C45.9842 39.4119 43.8725 38.9716 42.0638 38.0909C40.2551 37.2008 38.8488 35.9602 37.845 34.3693C36.8412 32.7784 36.3393 30.9223 36.3393 28.8011V9.90909H42.4899V28.2756C42.4899 29.3835 42.7314 30.3684 43.2143 31.2301C43.7068 32.0919 44.3981 32.7689 45.2882 33.2614C46.1784 33.7538 47.2153 34 48.399 34C49.5922 34 50.6291 33.7538 51.5098 33.2614C52.4 32.7689 53.0865 32.0919 53.5695 31.2301C54.0619 30.3684 54.3081 29.3835 54.3081 28.2756V9.90909ZM84.7668 9.90909H90.8463V30.1932C90.8463 32.0682 90.4249 33.697 89.5821 35.0795C88.7488 36.4621 87.5887 37.5275 86.102 38.2756C84.6152 39.0237 82.887 39.3977 80.9173 39.3977C79.1654 39.3977 77.5745 39.09 76.1446 38.4744C74.7241 37.8494 73.5973 36.9025 72.7639 35.6335C71.9306 34.3551 71.5187 32.75 71.5281 30.8182H77.6503C77.6692 31.5852 77.8255 32.2434 78.119 32.7926C78.4221 33.3324 78.834 33.7491 79.3548 34.0426C79.8851 34.3267 80.5101 34.4688 81.2298 34.4688C81.9874 34.4688 82.6266 34.3078 83.1474 33.9858C83.6777 33.6544 84.0802 33.1714 84.3548 32.5369C84.6294 31.9025 84.7668 31.1212 84.7668 30.1932V9.90909ZM108.546 39H101.955L111.997 9.90909H119.924L129.952 39H123.361L116.074 16.5568H115.847L108.546 39ZM108.134 27.5653H123.702V32.3665H108.134V27.5653ZM165.386 9.90909V39H160.073L147.417 20.6903H147.204V39H141.053V9.90909H146.451L159.008 28.2045H159.264V9.90909H165.386Z" fill="#242969"/>
<path d="M17.0227 79V55.7273H26.2045C27.9697 55.7273 29.4735 56.0644 30.7159 56.7386C31.9583 57.4053 32.9053 58.3333 33.5568 59.5227C34.2159 60.7045 34.5455 62.0682 34.5455 63.6136C34.5455 65.1591 34.2121 66.5227 33.5455 67.7045C32.8788 68.8864 31.9129 69.8068 30.6477 70.4659C29.3902 71.125 27.8674 71.4545 26.0795 71.4545H20.2273V67.5114H25.2841C26.2311 67.5114 27.0114 67.3485 27.625 67.0227C28.2462 66.6894 28.7083 66.2311 29.0114 65.6477C29.322 65.0568 29.4773 64.3788 29.4773 63.6136C29.4773 62.8409 29.322 62.1667 29.0114 61.5909C28.7083 61.0076 28.2462 60.5568 27.625 60.2386C27.0038 59.9129 26.2159 59.75 25.2614 59.75H21.9432V79H17.0227ZM62.0078 67.3636C62.0078 69.9015 61.5268 72.0606 60.5647 73.8409C59.6101 75.6212 58.3071 76.9811 56.6556 77.9205C55.0116 78.8523 53.1631 79.3182 51.1101 79.3182C49.0419 79.3182 47.1859 78.8485 45.5419 77.9091C43.898 76.9697 42.5988 75.6098 41.6442 73.8295C40.6897 72.0492 40.2124 69.8939 40.2124 67.3636C40.2124 64.8258 40.6897 62.6667 41.6442 60.8864C42.5988 59.1061 43.898 57.75 45.5419 56.8182C47.1859 55.8788 49.0419 55.4091 51.1101 55.4091C53.1631 55.4091 55.0116 55.8788 56.6556 56.8182C58.3071 57.75 59.6101 59.1061 60.5647 60.8864C61.5268 62.6667 62.0078 64.8258 62.0078 67.3636ZM57.0192 67.3636C57.0192 65.7197 56.773 64.3333 56.2806 63.2045C55.7957 62.0758 55.1101 61.2197 54.2238 60.6364C53.3374 60.053 52.2995 59.7614 51.1101 59.7614C49.9207 59.7614 48.8828 60.053 47.9965 60.6364C47.1101 61.2197 46.4207 62.0758 45.9283 63.2045C45.4434 64.3333 45.201 65.7197 45.201 67.3636C45.201 69.0076 45.4434 70.3939 45.9283 71.5227C46.4207 72.6515 47.1101 73.5076 47.9965 74.0909C48.8828 74.6742 49.9207 74.9659 51.1101 74.9659C52.2995 74.9659 53.3374 74.6742 54.2238 74.0909C55.1101 73.5076 55.7957 72.6515 56.2806 71.5227C56.773 70.3939 57.0192 69.0076 57.0192 67.3636ZM82.9077 55.7273H87.8282V70.8409C87.8282 72.5379 87.4229 74.0227 86.6123 75.2955C85.8092 76.5682 84.6842 77.5606 83.2373 78.2727C81.7903 78.9773 80.1047 79.3295 78.1805 79.3295C76.2486 79.3295 74.5592 78.9773 73.1123 78.2727C71.6653 77.5606 70.5403 76.5682 69.7373 75.2955C68.9342 74.0227 68.5327 72.5379 68.5327 70.8409V55.7273H73.4532V70.4205C73.4532 71.3068 73.6464 72.0947 74.0327 72.7841C74.4267 73.4735 74.9797 74.0152 75.6918 74.4091C76.4039 74.803 77.2335 75 78.1805 75C79.135 75 79.9645 74.803 80.6691 74.4091C81.3812 74.0152 81.9305 73.4735 82.3168 72.7841C82.7108 72.0947 82.9077 71.3068 82.9077 70.4205V55.7273ZM103.006 79H94.7565V55.7273H103.075C105.416 55.7273 107.431 56.1932 109.12 57.125C110.81 58.0492 112.109 59.3788 113.018 61.1136C113.935 62.8485 114.393 64.9242 114.393 67.3409C114.393 69.7652 113.935 71.8485 113.018 73.5909C112.109 75.3333 110.802 76.6705 109.097 77.6023C107.4 78.5341 105.37 79 103.006 79ZM99.6769 74.7841H102.802C104.256 74.7841 105.48 74.5265 106.472 74.0114C107.472 73.4886 108.222 72.6818 108.722 71.5909C109.23 70.4924 109.484 69.0758 109.484 67.3409C109.484 65.6212 109.23 64.2159 108.722 63.125C108.222 62.0341 107.476 61.2311 106.484 60.7159C105.491 60.2008 104.268 59.9432 102.813 59.9432H99.6769V74.7841ZM120.918 79V55.7273H136.6V59.7841H125.838V65.3295H135.793V69.3864H125.838V74.9432H136.645V79H120.918ZM143.391 79V55.7273H148.312V74.9432H158.289V79H143.391Z" fill="black"/>
</svg>
