<svg width="106" height="48" viewBox="0 0 106 48" fill="none" xmlns="http://www.w3.org/2000/svg">
<path d="M10.9858 10.5653C10.9176 9.87784 10.625 9.34375 10.108 8.96307C9.59091 8.58239 8.8892 8.39204 8.00284 8.39204C7.40057 8.39204 6.89205 8.47727 6.47727 8.64773C6.0625 8.8125 5.74432 9.04261 5.52273 9.33807C5.30682 9.63352 5.19886 9.96875 5.19886 10.3438C5.1875 10.6562 5.25284 10.929 5.39489 11.1619C5.54261 11.3949 5.74432 11.5966 6 11.767C6.25568 11.9318 6.55114 12.0767 6.88636 12.2017C7.22159 12.321 7.57955 12.4233 7.96023 12.5085L9.52841 12.8835C10.2898 13.054 10.9886 13.2812 11.625 13.5653C12.2614 13.8494 12.8125 14.1989 13.2784 14.6136C13.7443 15.0284 14.1051 15.517 14.3608 16.0795C14.6222 16.642 14.7557 17.2869 14.7614 18.0142C14.7557 19.0824 14.483 20.0085 13.9432 20.7926C13.4091 21.571 12.6364 22.1761 11.625 22.608C10.6193 23.0341 9.40625 23.2472 7.9858 23.2472C6.5767 23.2472 5.34943 23.0312 4.30398 22.5994C3.2642 22.1676 2.4517 21.5284 1.86648 20.6818C1.28693 19.8295 0.982955 18.7756 0.954545 17.5199H4.52557C4.56534 18.1051 4.73295 18.5937 5.02841 18.9858C5.32955 19.3722 5.73011 19.6648 6.23011 19.8636C6.7358 20.0568 7.30682 20.1534 7.94318 20.1534C8.56818 20.1534 9.1108 20.0625 9.57102 19.8807C10.0369 19.6989 10.3977 19.446 10.6534 19.1222C10.9091 18.7983 11.0369 18.4261 11.0369 18.0057C11.0369 17.6136 10.9205 17.2841 10.6875 17.017C10.4602 16.75 10.125 16.5227 9.68182 16.3352C9.24432 16.1477 8.70739 15.9773 8.07102 15.8239L6.17045 15.3466C4.69886 14.9886 3.53693 14.429 2.68466 13.6676C1.83239 12.9062 1.40909 11.8807 1.41477 10.5909C1.40909 9.53409 1.69034 8.6108 2.25852 7.82102C2.83239 7.03125 3.61932 6.41477 4.61932 5.97159C5.61932 5.52841 6.75568 5.30682 8.02841 5.30682C9.32386 5.30682 10.4545 5.52841 11.4205 5.97159C12.392 6.41477 13.1477 7.03125 13.6875 7.82102C14.2273 8.6108 14.5057 9.52557 14.5227 10.5653H10.9858ZM32.5849 5.54545H36.2752V16.8807C36.2752 18.1534 35.9712 19.267 35.3633 20.2216C34.761 21.1761 33.9172 21.9205 32.832 22.4545C31.7468 22.983 30.4826 23.2472 29.0394 23.2472C27.5905 23.2472 26.3235 22.983 25.2383 22.4545C24.153 21.9205 23.3093 21.1761 22.707 20.2216C22.1047 19.267 21.8036 18.1534 21.8036 16.8807V5.54545H25.4939V16.5653C25.4939 17.2301 25.6388 17.821 25.9286 18.3381C26.2241 18.8551 26.6388 19.2614 27.1729 19.5568C27.707 19.8523 28.3292 20 29.0394 20C29.7553 20 30.3775 19.8523 30.9059 19.5568C31.44 19.2614 31.8519 18.8551 32.1417 18.3381C32.4371 17.821 32.5849 17.2301 32.5849 16.5653V5.54545ZM50.8601 5.54545H54.5078V17.7159C54.5078 18.8409 54.2549 19.8182 53.7493 20.6477C53.2493 21.4773 52.5532 22.1165 51.6612 22.5653C50.7691 23.0142 49.7322 23.2386 48.5504 23.2386C47.4993 23.2386 46.5447 23.054 45.6868 22.6847C44.8345 22.3097 44.1584 21.7415 43.6584 20.9801C43.1584 20.2131 42.9112 19.25 42.9169 18.0909H46.5902C46.6015 18.5511 46.6953 18.946 46.8714 19.2756C47.0532 19.5994 47.3004 19.8494 47.6129 20.0256C47.9311 20.196 48.3061 20.2812 48.7379 20.2812C49.1924 20.2812 49.576 20.1847 49.8885 19.9915C50.2066 19.7926 50.4481 19.5028 50.6129 19.1222C50.7777 18.7415 50.8601 18.2727 50.8601 17.7159V5.54545ZM65.1274 23H61.1729L67.1985 5.54545H71.9541L77.9712 23H74.0166L69.6445 9.53409H69.5081L65.1274 23ZM64.8803 16.1392H74.2212V19.0199H64.8803V16.1392ZM99.2315 5.54545V23H96.044L88.4502 12.0142H88.3224V23H84.632V5.54545H87.8707L95.4048 16.5227H95.5582V5.54545H99.2315Z" fill="#242969"/>
<path d="M17.0114 44V32.3636H21.6023C22.4848 32.3636 23.2367 32.5322 23.858 32.8693C24.4792 33.2027 24.9527 33.6667 25.2784 34.2614C25.608 34.8523 25.7727 35.5341 25.7727 36.3068C25.7727 37.0795 25.6061 37.7614 25.2727 38.3523C24.9394 38.9432 24.4564 39.4034 23.8239 39.733C23.1951 40.0625 22.4337 40.2273 21.5398 40.2273H18.6136V38.2557H21.142C21.6155 38.2557 22.0057 38.1742 22.3125 38.0114C22.6231 37.8447 22.8542 37.6155 23.0057 37.3239C23.161 37.0284 23.2386 36.6894 23.2386 36.3068C23.2386 35.9205 23.161 35.5833 23.0057 35.2955C22.8542 35.0038 22.6231 34.7784 22.3125 34.6193C22.0019 34.4564 21.608 34.375 21.1307 34.375H19.4716V44H17.0114ZM39.5039 38.1818C39.5039 39.4508 39.2634 40.5303 38.7823 41.4205C38.3051 42.3106 37.6535 42.9905 36.8278 43.4602C36.0058 43.9261 35.0816 44.1591 34.0551 44.1591C33.021 44.1591 32.0929 43.9242 31.271 43.4545C30.449 42.9848 29.7994 42.3049 29.3221 41.4148C28.8448 40.5246 28.6062 39.447 28.6062 38.1818C28.6062 36.9129 28.8448 35.8333 29.3221 34.9432C29.7994 34.053 30.449 33.375 31.271 32.9091C32.0929 32.4394 33.021 32.2045 34.0551 32.2045C35.0816 32.2045 36.0058 32.4394 36.8278 32.9091C37.6535 33.375 38.3051 34.053 38.7823 34.9432C39.2634 35.8333 39.5039 36.9129 39.5039 38.1818ZM37.0096 38.1818C37.0096 37.3598 36.8865 36.6667 36.6403 36.1023C36.3979 35.5379 36.0551 35.1098 35.6119 34.8182C35.1687 34.5265 34.6498 34.3807 34.0551 34.3807C33.4604 34.3807 32.9414 34.5265 32.4982 34.8182C32.0551 35.1098 31.7104 35.5379 31.4641 36.1023C31.2217 36.6667 31.1005 37.3598 31.1005 38.1818C31.1005 39.0038 31.2217 39.697 31.4641 40.2614C31.7104 40.8258 32.0551 41.2538 32.4982 41.5455C32.9414 41.8371 33.4604 41.983 34.0551 41.983C34.6498 41.983 35.1687 41.8371 35.6119 41.5455C36.0551 41.2538 36.3979 40.8258 36.6403 40.2614C36.8865 39.697 37.0096 39.0038 37.0096 38.1818ZM49.9539 32.3636H52.4141V39.9205C52.4141 40.7689 52.2114 41.5114 51.8061 42.1477C51.4046 42.7841 50.8421 43.2803 50.1186 43.6364C49.3952 43.9886 48.5523 44.1648 47.5902 44.1648C46.6243 44.1648 45.7796 43.9886 45.0561 43.6364C44.3327 43.2803 43.7702 42.7841 43.3686 42.1477C42.9671 41.5114 42.7664 40.7689 42.7664 39.9205V32.3636H45.2266V39.7102C45.2266 40.1534 45.3232 40.5473 45.5164 40.892C45.7133 41.2367 45.9898 41.5076 46.3459 41.7045C46.702 41.9015 47.1167 42 47.5902 42C48.0675 42 48.4823 41.9015 48.8345 41.7045C49.1906 41.5076 49.4652 41.2367 49.6584 40.892C49.8554 40.5473 49.9539 40.1534 49.9539 39.7102V32.3636ZM60.0032 44H55.8782V32.3636H60.0373C61.2078 32.3636 62.2154 32.5966 63.0601 33.0625C63.9048 33.5246 64.5544 34.1894 65.0089 35.0568C65.4673 35.9242 65.6964 36.9621 65.6964 38.1705C65.6964 39.3826 65.4673 40.4242 65.0089 41.2955C64.5544 42.1667 63.901 42.8352 63.0487 43.3011C62.2002 43.767 61.1851 44 60.0032 44ZM58.3385 41.892H59.901C60.6282 41.892 61.24 41.7633 61.7362 41.5057C62.2362 41.2443 62.6112 40.8409 62.8612 40.2955C63.115 39.7462 63.2419 39.0379 63.2419 38.1705C63.2419 37.3106 63.115 36.608 62.8612 36.0625C62.6112 35.517 62.2381 35.1155 61.7419 34.858C61.2457 34.6004 60.6339 34.4716 59.9066 34.4716H58.3385V41.892ZM68.9589 44V32.3636H76.7998V34.392H71.4191V37.1648H76.3964V39.1932H71.4191V41.9716H76.8225V44H68.9589ZM80.1957 44V32.3636H82.656V41.9716H87.6446V44H80.1957Z" fill="black"/>
</svg>
