<svg width="196" height="176" viewBox="0 0 196 176" fill="none" xmlns="http://www.w3.org/2000/svg">
<rect width="196" height="176" rx="12" fill="#242969"/>
<path d="M79.7344 102.781C79.7344 101.469 79.5312 100.297 79.125 99.2656C78.75 98.2031 78.0469 97.25 77.0156 96.4062C76.0156 95.5312 74.5938 94.6875 72.75 93.875C70.9375 93.0312 68.5938 92.1562 65.7188 91.25C62.5312 90.25 59.5625 89.125 56.8125 87.875C54.0625 86.625 51.6406 85.1719 49.5469 83.5156C47.4844 81.8594 45.875 79.9531 44.7188 77.7969C43.5625 75.6094 42.9844 73.0781 42.9844 70.2031C42.9844 67.3906 43.5781 64.8281 44.7656 62.5156C45.9844 60.2031 47.7031 58.2188 49.9219 56.5625C52.1406 54.875 54.75 53.5781 57.75 52.6719C60.7812 51.7656 64.125 51.3125 67.7812 51.3125C72.8438 51.3125 77.2188 52.2344 80.9062 54.0781C84.625 55.9219 87.5 58.4219 89.5312 61.5781C91.5625 64.7344 92.5781 68.2812 92.5781 72.2188H79.7344C79.7344 70.0938 79.2812 68.2188 78.375 66.5938C77.5 64.9688 76.1562 63.6875 74.3438 62.75C72.5625 61.8125 70.3125 61.3438 67.5938 61.3438C64.9688 61.3438 62.7812 61.7344 61.0312 62.5156C59.3125 63.2969 58.0156 64.3594 57.1406 65.7031C56.2969 67.0469 55.875 68.5469 55.875 70.2031C55.875 71.4531 56.1719 72.5781 56.7656 73.5781C57.3594 74.5469 58.25 75.4688 59.4375 76.3438C60.625 77.1875 62.0938 77.9844 63.8438 78.7344C65.625 79.4531 67.6875 80.1719 70.0312 80.8906C73.7812 82.0156 77.0625 83.2656 79.875 84.6406C82.7188 86.0156 85.0781 87.5781 86.9531 89.3281C88.8594 91.0781 90.2812 93.0469 91.2188 95.2344C92.1875 97.4219 92.6719 99.9062 92.6719 102.688C92.6719 105.625 92.0938 108.25 90.9375 110.562C89.7812 112.875 88.125 114.844 85.9688 116.469C83.8125 118.094 81.2188 119.328 78.1875 120.172C75.1875 121.016 71.8281 121.438 68.1094 121.438C64.7969 121.438 61.5156 121 58.2656 120.125C55.0469 119.219 52.125 117.875 49.5 116.094C46.875 114.281 44.7812 112 43.2188 109.25C41.6562 106.469 40.875 103.219 40.875 99.5H53.8125C53.8125 101.656 54.1562 103.5 54.8438 105.031C55.5625 106.531 56.5625 107.766 57.8438 108.734C59.1562 109.672 60.6875 110.359 62.4375 110.797C64.1875 111.234 66.0781 111.453 68.1094 111.453C70.7344 111.453 72.8906 111.094 74.5781 110.375C76.2969 109.625 77.5781 108.594 78.4219 107.281C79.2969 105.969 79.7344 104.469 79.7344 102.781ZM128.859 95.6094H111.281V85.4844H128.859C131.734 85.4844 134.062 85.0156 135.844 84.0781C137.656 83.1094 138.984 81.7969 139.828 80.1406C140.672 78.4531 141.094 76.5312 141.094 74.375C141.094 72.2812 140.672 70.3281 139.828 68.5156C138.984 66.7031 137.656 65.2344 135.844 64.1094C134.062 62.9844 131.734 62.4219 128.859 62.4219H115.5V120.5H102.609V52.25H128.859C134.172 52.25 138.703 53.2031 142.453 55.1094C146.234 56.9844 149.109 59.5938 151.078 62.9375C153.078 66.25 154.078 70.0312 154.078 74.2812C154.078 78.6875 153.078 82.4844 151.078 85.6719C149.109 88.8594 146.234 91.3125 142.453 93.0312C138.703 94.75 134.172 95.6094 128.859 95.6094Z" fill="white"/>
</svg>
